<?xml version="1.0" encoding="utf-8"?>
<!-- Generator: Adobe Illustrator 16.0.0, SVG Export Plug-In . SVG Version: 6.00 Build 0)  -->
<!DOCTYPE svg PUBLIC "-//W3C//DTD SVG 1.0//EN" "http://www.w3.org/TR/2001/REC-SVG-20010904/DTD/svg10.dtd">
<svg version="1.0" id="Layer_1" xmlns="http://www.w3.org/2000/svg" xmlns:xlink="http://www.w3.org/1999/xlink" x="0px" y="0px"
	 width="800px" height="800px" viewBox="0 0 800 800" enable-background="new 0 0 800 800" xml:space="preserve">
<g>
	<path fill="#812C7C" d="M142.028,195.026c-0.525,1.002-0.615,2.043-0.28,3.125c0.338,1.082,1.009,1.883,2.011,2.411l126.07,73.141
		l0.265,0.139c0.498,0.272,1.029,0.428,1.594,0.476c0.56,0.05,1.115-0.018,1.65-0.202c0.537-0.181,1.016-0.46,1.436-0.84
		c0.42-0.377,0.746-0.825,0.979-1.34c6.03-10.65,13.16-20.51,21.378-29.578c8.222-9.065,17.341-17.121,27.352-24.159
		c10.013-7.04,20.676-12.893,31.989-17.564c11.315-4.668,23.005-8.036,35.067-10.105c1.038-0.252,1.86-0.817,2.456-1.706
		c0.598-0.89,0.813-1.863,0.65-2.92l-0.056-0.285L367.911,42.53l-0.031-0.247c-0.225-1.033-0.762-1.851-1.616-2.468
		c-0.854-0.615-1.805-0.866-2.852-0.749l-0.372,0.088c-11.46,2.067-22.775,4.75-33.943,8.049
		c-11.17,3.298-22.124,7.196-32.866,11.693c-10.744,4.496-21.209,9.56-31.402,15.199c-10.189,5.637-20.042,11.808-29.558,18.521
		c-9.517,6.712-18.644,13.92-27.371,21.629c-8.73,7.707-17.016,15.864-24.854,24.478c-7.84,8.608-15.188,17.622-22.048,27.034
		C154.146,175.164,147.821,184.922,142.028,195.026"/>
	<path fill="#005093" d="M70.048,471.466c0.661,1.467,1.789,2.278,3.394,2.43c0.698,0.059,1.372-0.058,2.018-0.343l136.034-52.314
		l0.303-0.146c0.52-0.222,0.971-0.534,1.362-0.941c0.388-0.408,0.676-0.88,0.872-1.41c0.192-0.53,0.272-1.071,0.239-1.637
		c-0.035-0.562-0.181-1.097-0.435-1.604c-4.543-11.352-7.779-23.062-9.712-35.134c-1.937-12.075-2.516-24.216-1.75-36.417
		c0.77-12.202,2.869-24.171,6.307-35.907c3.436-11.735,8.118-22.948,14.045-33.642c0.46-0.969,0.531-1.963,0.213-2.986
		c-0.322-1.023-0.946-1.803-1.873-2.334l-0.266-0.125L92.338,200.134l-0.233-0.109c-0.484-0.25-0.998-0.403-1.54-0.445
		c-0.544-0.044-1.073,0.017-1.592,0.184c-0.519,0.165-0.985,0.428-1.396,0.783c-0.414,0.356-0.744,0.776-0.988,1.263
		c-5.561,10.221-10.546,20.713-14.958,31.477c-4.415,10.764-8.229,21.738-11.442,32.921c-3.216,11.178-5.807,22.503-7.785,33.967
		c-1.974,11.464-3.32,23.001-4.035,34.617c-0.714,11.609-0.79,23.225-0.237,34.848c0.554,11.62,1.741,23.174,3.561,34.667
		c1.818,11.487,4.257,22.853,7.318,34.074c3.061,11.228,6.725,22.248,10.99,33.068"/>
	<path fill="#008FC9" d="M242.955,698.66c1.093,0.286,2.128,0.141,3.103-0.433c0.976-0.568,1.61-1.398,1.894-2.494l43.393-138.94
		l0.073-0.324c0.152-0.548,0.186-1.095,0.11-1.657c-0.075-0.556-0.266-1.074-0.562-1.558c-0.295-0.481-0.678-0.886-1.144-1.208
		c-0.463-0.318-0.973-0.537-1.527-0.648c-11.728-3.482-22.936-8.221-33.611-14.203c-10.681-5.982-20.567-13.058-29.669-21.235
		c-9.106-8.184-17.197-17.265-24.282-27.241c-7.082-9.982-12.984-20.612-17.701-31.908c-0.467-0.963-1.205-1.64-2.206-2.024
		c-1.002-0.384-1.999-0.375-2.994,0.029l-0.265,0.105l-133.82,57.805l-0.233,0.107c-0.962,0.436-1.65,1.151-2.064,2.124
		c-0.415,0.978-0.446,1.96-0.094,2.961l0.125,0.342c4.582,10.706,9.731,21.128,15.449,31.274
		c5.717,10.141,11.972,19.942,18.763,29.403c6.79,9.459,14.074,18.525,21.85,27.193c7.779,8.665,16.005,16.882,24.679,24.649
		c8.676,7.768,17.745,15.037,27.215,21.816c9.47,6.776,19.278,13.018,29.431,18.725c10.149,5.706,20.58,10.846,31.288,15.413
		c10.713,4.563,21.642,8.542,32.785,11.913"/>
	<path fill="#009949" d="M527.237,705.408c0.909-0.671,1.446-1.563,1.612-2.681c0.168-1.114-0.085-2.127-0.753-3.033
		l-81.249-120.854l-0.216-0.266c-0.977-1.38-2.298-1.928-3.962-1.648c-0.487,0.074-0.948,0.232-1.374,0.484
		c-10.108,7.012-20.863,12.821-32.265,17.437c-11.407,4.615-23.176,7.918-35.314,9.906c-12.145,1.99-24.353,2.617-36.63,1.886
		c-12.281-0.732-24.33-2.811-36.146-6.228c-1.05-0.253-2.041-0.107-2.974,0.43c-0.93,0.544-1.549,1.336-1.846,2.371l-0.073,0.266
		l-38.784,140.318l-0.053,0.251c-0.161,0.592-0.178,1.185-0.055,1.784c0.344,1.691,1.349,2.751,3.018,3.179
		c11.218,3.152,22.575,5.684,34.07,7.594c11.494,1.914,23.06,3.201,34.694,3.85c11.63,0.655,23.267,0.675,34.903,0.06
		c11.64-0.617,23.206-1.864,34.707-3.741c11.499-1.88,22.861-4.365,34.09-7.483c11.231-3.108,22.253-6.831,33.078-11.144
		c10.824-4.313,21.381-9.206,31.672-14.673c10.288-5.464,20.252-11.478,29.888-18.029"/>
	<path fill="#FFF101" d="M712.323,488.624c0.049-1.617-0.623-2.834-2.017-3.655c-0.61-0.346-1.267-0.524-1.963-0.542
		l-145.357-11.336h-0.303c-0.566-0.031-1.111,0.055-1.642,0.26c-0.528,0.199-0.995,0.505-1.399,0.9
		c-0.402,0.396-0.709,0.855-0.918,1.386c-0.211,0.527-0.308,1.063-0.289,1.637c-0.807,12.211-2.949,24.172-6.418,35.907
		c-3.47,11.725-8.188,22.927-14.153,33.606c-5.962,10.678-13.026,20.576-21.194,29.687c-8.166,9.106-17.23,17.204-27.2,24.294
		c-0.842,0.67-1.339,1.535-1.489,2.605c-0.153,1.063,0.08,2.035,0.705,2.915l0.163,0.231l86.177,117.372l0.161,0.198
		c0.649,0.84,1.492,1.35,2.535,1.538c1.044,0.188,2.012,0,2.913-0.559l0.287-0.213c9.429-6.822,18.459-14.14,27.087-21.95
		c8.627-7.813,16.806-16.07,24.536-24.772c7.726-8.705,14.957-17.802,21.688-27.298c6.733-9.496,12.933-19.325,18.589-29.496
		c5.658-10.174,10.747-20.621,15.264-31.349c4.519-10.727,8.435-21.67,11.759-32.823c3.319-11.157,6.023-22.456,8.111-33.911
		s3.546-22.985,4.373-34.59"/>
	<path fill="#E9822C" d="M657.381,208.595c-0.415-0.358-0.881-0.621-1.396-0.792c-0.517-0.175-1.052-0.239-1.594-0.195
		c-0.544,0.04-1.061,0.181-1.551,0.429c-0.486,0.245-0.909,0.573-1.265,0.988L551.257,314.662l-0.216,0.25
		c-0.379,0.421-0.656,0.893-0.835,1.429c-0.184,0.538-0.242,1.086-0.191,1.646c0.053,0.558,0.213,1.087,0.486,1.58
		c0.27,0.492,0.631,0.913,1.077,1.255c8.994,8.293,16.965,17.475,23.915,27.542c6.947,10.069,12.703,20.778,17.266,32.133
		c4.561,11.35,7.82,23.068,9.773,35.14c1.951,12.077,2.552,24.222,1.796,36.43c0,0.54,0.092,1.053,0.286,1.534
		c0.593,1.433,1.931,2.431,3.48,2.557h0.304l145.588,7.054h0.247c1.062,0.03,1.992-0.303,2.796-0.991
		c0.807-0.694,1.271-1.562,1.4-2.614v-0.358c0.622-11.62,0.605-23.247-0.037-34.864c-0.647-11.619-1.927-23.171-3.836-34.653
		c-1.911-11.482-4.442-22.828-7.592-34.031c-3.148-11.207-6.9-22.201-11.252-32.998c-4.349-10.798-9.276-21.324-14.779-31.577
		c-5.503-10.259-11.546-20.184-18.137-29.782c-6.586-9.595-13.675-18.804-21.267-27.625c-7.593-8.824-15.642-17.204-24.149-25.145"
		/>
	<path fill="#D8232A" d="M402.471,78.42c-0.534,0.106-1.029,0.31-1.479,0.609c-0.449,0.304-0.828,0.679-1.131,1.132
		c-0.303,0.451-0.504,0.944-0.609,1.478c-0.105,0.534-0.105,1.063,0.003,1.598l21.323,143.999l0.056,0.323
		c0.1,0.552,0.309,1.066,0.621,1.534c0.315,0.466,0.708,0.852,1.181,1.154c0.476,0.307,0.991,0.503,1.545,0.595
		c0.557,0.092,1.106,0.067,1.65-0.069c12.096-1.939,24.254-2.521,36.477-1.761c12.225,0.764,24.215,2.86,35.973,6.291
		c11.76,3.424,22.997,8.102,33.718,14.029c10.719,5.922,20.658,12.952,29.813,21.083c0.843,0.662,1.797,0.948,2.86,0.858
		c1.065-0.09,1.956-0.53,2.674-1.324l0.197-0.232l95.408-110.033l0.178-0.181c0.683-0.814,0.997-1.755,0.951-2.815
		c-0.049-1.061-0.446-1.967-1.198-2.718l-0.286-0.249c-8.775-7.659-17.942-14.823-27.501-21.489
		c-9.558-6.663-19.45-12.783-29.673-18.366c-10.226-5.584-20.725-10.599-31.496-15.037c-10.768-4.435-21.751-8.278-32.941-11.523
		c-11.19-3.239-22.524-5.866-33.997-7.872c-11.479-2.005-23.029-3.385-34.653-4.132c-11.624-0.747-23.259-0.861-34.897-0.341
		c-11.643,0.523-23.216,1.675-34.729,3.456"/>
	<path fill="#1A1919" d="M342.398,387.681l49.912-35.551l49.929,35.551l-19.072,57.552h-61.713L342.398,387.681z M481.611,472.072
		c7.626-9.682,13.441-20.348,17.464-31.99c4.018-11.648,6.012-23.631,5.982-35.954c0-1.178-0.087-2.356-0.087-3.52
		c-1.628,5.022-3.842,9.824-6.607,14.323c-0.601-3.355-1.433-6.655-2.499-9.892c-3.01-9.402-7.828-17.753-14.464-25.057
		l-33.747,6.768l-0.126-0.373l31.502-14.213c0.927-9.621-0.152-19.005-3.234-28.162c-1.07-3.238-2.357-6.393-3.857-9.465
		c5.053,2.088,9.819,4.786,14.231,8.058c-7.484-11.016-16.637-20.405-27.46-28.16c-10.822-7.758-22.652-13.415-35.484-16.964
		c4.624,3.127,8.822,6.837,12.465,11.07c-3.426-0.468-6.863-0.708-10.322-0.715c-9.859-0.072-19.318,1.841-28.373,5.751
		l-3.912,33.732h-0.395l-3.929-33.697c-9.058-3.925-18.521-5.849-28.391-5.787c-3.452,0.007-6.886,0.248-10.305,0.715
		c3.642-4.251,7.856-7.962,12.5-11.07c-12.849,3.555-24.69,9.214-35.521,16.982c-10.833,7.77-19.991,17.167-27.479,28.197
		c4.413-3.285,9.218-6.018,14.305-8.109c-1.507,3.066-2.792,6.221-3.857,9.465c-3.083,9.147-4.163,18.521-3.25,28.126l31.553,14.232
		l-0.123,0.358l-33.75-6.733c-6.647,7.315-11.482,15.678-14.499,25.09c-1.074,3.218-1.914,6.531-2.499,9.898
		c-2.791-4.548-4.998-9.356-6.625-14.433c-0.088,1.196-0.088,2.394-0.088,3.629c0.003,12.338,2.036,24.337,6.101,35.99
		c4.06,11.657,9.927,22.315,17.595,31.988c-1.592-4.918-2.615-9.943-3.069-15.089c2.498,2.357,5.142,4.553,7.927,6.556
		c7.804,5.674,16.713,9.697,26.164,11.747l23.604-25.395l0.339,0.232l-17.125,29.912c4.963,8.394,11.643,15.62,19.605,21.25
		c2.788,2.001,5.715,3.801,8.75,5.409c-5.074,1.146-10.208,1.737-15.413,1.763c12.222,4.314,24.816,6.464,37.779,6.464
		c12.964,0,25.554-2.149,37.776-6.464c-5.184-0.04-10.302-0.637-15.356-1.778c3.038-1.612,5.962-3.411,8.768-5.414
		c7.966-5.625,14.643-12.853,19.59-21.252l-17.106-29.89l0.322-0.232l23.604,25.395c9.539-2.101,18.261-6.02,26.162-11.769
		c2.788-1.998,5.447-4.195,7.928-6.554C484.208,462.163,483.189,467.178,481.611,472.072L481.611,472.072z M392.327,283.663
		c66.966-0.355,121.537,53.574,122.017,120.534c0,3.938-0.192,7.863-0.578,11.787c-0.387,3.915-0.961,7.808-1.729,11.669
		c-0.767,3.861-1.717,7.677-2.86,11.446c-1.14,3.767-2.461,7.471-3.962,11.11c-1.505,3.639-3.182,7.192-5.035,10.669
		c-1.855,3.478-3.869,6.854-6.054,10.134c-2.184,3.272-4.519,6.438-7.012,9.485c-2.493,3.046-5.129,5.965-7.904,8.753
		c-2.781,2.793-5.689,5.438-8.727,7.943c-3.039,2.503-6.191,4.855-9.46,7.05c-3.269,2.195-6.636,4.226-10.103,6.091
		c-3.467,1.871-7.019,3.563-10.65,5.074c-3.633,1.517-7.33,2.854-11.098,4.015c-3.764,1.156-7.575,2.119-11.432,2.901
		c-3.861,0.78-7.747,1.376-11.663,1.771c-3.916,0.407-7.844,0.608-11.782,0.626c-3.94,0.017-7.868-0.159-11.786-0.533
		c-3.919-0.367-7.814-0.924-11.678-1.676c-3.863-0.748-7.682-1.687-11.456-2.811c-3.772-1.127-7.481-2.432-11.125-3.924
		c-3.645-1.486-7.208-3.146-10.692-4.985c-3.482-1.837-6.867-3.842-10.154-6.014c-3.285-2.17-6.457-4.487-9.513-6.97
		c-3.06-2.481-5.989-5.109-8.792-7.874c-2.799-2.764-5.461-5.663-7.977-8.69c-2.52-3.025-4.882-6.17-7.091-9.428
		c-2.21-3.263-4.251-6.619-6.135-10.079c-1.88-3.46-3.583-7.002-5.117-10.629c-1.53-3.626-2.887-7.324-4.056-11.082
		c-1.168-3.76-2.151-7.566-2.951-11.425c-0.798-3.85-1.405-7.735-1.822-11.65c-0.417-3.918-0.641-7.841-0.676-11.782
		c-0.032-3.936,0.128-7.862,0.483-11.784c0.354-3.921,0.896-7.818,1.63-11.685c0.731-3.867,1.653-7.693,2.765-11.469
		c1.107-3.778,2.399-7.492,3.874-11.145c1.474-3.649,3.124-7.221,4.946-10.708c1.819-3.49,3.811-6.88,5.965-10.176
		c2.155-3.295,4.467-6.479,6.933-9.542c2.47-3.072,5.08-6.011,7.837-8.825c2.757-2.81,5.643-5.48,8.661-8.012
		c3.017-2.53,6.149-4.907,9.401-7.129c3.25-2.225,6.6-4.282,10.052-6.176c3.453-1.892,6.989-3.611,10.611-5.16
		c3.618-1.548,7.307-2.917,11.059-4.102c3.753-1.188,7.557-2.188,11.41-3c3.854-0.814,7.738-1.438,11.65-1.871
		C384.466,283.955,388.394,283.713,392.327,283.663z"/>
	<path fill="#FFFFFE" d="M343.58,387.074l18.857,56.854h60.982l18.839-56.854l-49.337-35.16l-49.321,35.16H343.58z M481.611,472.004
		c1.572-4.899,2.607-9.935,3.071-15.055c-2.498,2.373-5.141,4.567-7.929,6.572c-7.896,5.746-16.615,9.667-26.16,11.766
		l-23.588-25.39l-0.34,0.228l17.108,29.895c-4.966,8.392-11.624,15.621-19.59,21.229c-2.787,2.002-5.714,3.807-8.75,5.41
		c5.038,1.145,10.178,1.749,15.36,1.786c-12.221,4.304-24.811,6.464-37.768,6.464c-12.959,0-25.548-2.16-37.768-6.464
		c5.177-0.04,10.338-0.624,15.392-1.769c-3.039-1.603-5.955-3.411-8.747-5.411c-8.05-5.68-14.579-12.762-19.59-21.246l17.109-29.895
		l-0.342-0.228l-23.608,25.39c-9.535-2.09-18.25-6.012-26.139-11.751c-2.791-2.004-5.426-4.198-7.913-6.569
		c0.446,5.14,1.463,10.196,3.053,15.105c-7.668-9.666-13.535-20.334-17.597-31.984c-4.062-11.657-6.094-23.653-6.099-35.997
		c0-1.215,0-2.428,0.089-3.604c1.61,5.048,3.841,9.888,6.607,14.404c0.606-3.358,1.455-6.649,2.537-9.892
		c2.965-9.304,7.91-17.855,14.482-25.086l33.75,6.75l0.105-0.355l-31.535-14.235c-0.913-9.604,0.169-18.977,3.249-28.125
		c1.073-3.23,2.358-6.392,3.86-9.46c-5.091,2.087-9.893,4.818-14.288,8.102c7.482-11.024,16.634-20.421,27.463-28.189
		c10.827-7.771,22.661-13.432,35.503-16.985c-4.643,3.106-8.841,6.842-12.503,11.073c3.42-0.471,6.855-0.709,10.305-0.715
		c9.872-0.067,19.336,1.863,28.393,5.784l3.928,33.678h0.394l3.908-33.716c9.05-3.897,18.502-5.81,28.357-5.728
		c3.447,0,6.894,0.23,10.322,0.698c-3.665-4.244-7.819-7.935-12.465-11.073c12.829,3.553,24.658,9.208,35.476,16.965
		c10.819,7.76,19.973,17.146,27.451,28.159c-4.409-3.272-9.152-5.95-14.23-8.036c1.5,3.037,2.787,6.214,3.856,9.465
		c3.057,9.035,4.161,18.626,3.251,28.142l-31.499,14.2l0.142,0.373l33.715-6.75c6.553,7.213,11.499,15.748,14.464,25.031
		c1.069,3.233,1.909,6.552,2.499,9.897c2.766-4.488,4.979-9.288,6.607-14.301c0,1.154,0.087,2.315,0.087,3.491
		c0.032,12.326-1.962,24.312-5.982,35.957C495.056,451.657,489.237,462.323,481.611,472.004L481.611,472.004z"/>
</g>
</svg>
