<svg id="Layer_1" data-name="Layer 1" xmlns="http://www.w3.org/2000/svg" xmlns:xlink="http://www.w3.org/1999/xlink" width="200" height="200" viewBox="0 0 200 200"><defs><style>.cls-1{fill:#1b1658;}.cls-2{fill:url(#linear-gradient);}.cls-3{fill:url(#linear-gradient-2);}.cls-4{fill:#00b74f;}.cls-5{fill:#e3e3e3;}.cls-6{fill:#e5002b;}.cls-7{fill:none;}</style><linearGradient id="linear-gradient" x1="87.03" y1="80.37" x2="113.53" y2="80.37" gradientTransform="matrix(1, 0, 0, -1, 0, 202)" gradientUnits="userSpaceOnUse"><stop offset="0" stop-color="#2ee5fc"/><stop offset="1" stop-color="#0573ff"/></linearGradient><linearGradient id="linear-gradient-2" x1="132.24" y1="187.1" x2="103.47" y2="108.03" gradientTransform="matrix(1, 0, 0, -1, 0, 202)" gradientUnits="userSpaceOnUse"><stop offset="0" stop-color="#2ee5fc"/><stop offset="1" stop-color="#0573ff"/></linearGradient></defs><title>serie-a-logo-freelogovectors.net_</title><path class="cls-1" d="M45.19,175.37a10.86,10.86,0,0,1-3.91-2.32.41.41,0,0,1-.05-.59l2.66-3c.12-.17.29-.21.5,0a9.89,9.89,0,0,0,6.19,2.44c2.4,0,3.87-1.09,3.87-2.82,0-1.51-1-2.27-3.66-2.65l-1.27-.17c-5-.71-7.49-3.07-7.49-7.11a6.66,6.66,0,0,1,2.28-5.26,9.09,9.09,0,0,1,6.1-2,12.76,12.76,0,0,1,8,2.49.29.29,0,0,1,.08.5L56.43,158a.35.35,0,0,1-.51.08,10,10,0,0,0-5.51-1.81c-2.06,0-3.16,1.05-3.16,2.57s1,2.23,3.71,2.61l1.26.17c5,.67,7.45,3.07,7.45,7.15,0,4.46-3.33,7.45-9.3,7.45a14.62,14.62,0,0,1-5.18-.84" transform="translate(0)"/><path class="cls-1" d="M62.44,152.56a.3.3,0,0,1,.34-.34H77.93c.25,0,.34.09.34.34v3.7c0,.25-.09.34-.34.34H67.75a.19.19,0,0,0-.21.21v4.71a.19.19,0,0,0,.21.21h8.5c.25,0,.33.09.33.34v3.7c0,.25-.08.34-.33.34h-8.5a.19.19,0,0,0-.21.21v4.92a.19.19,0,0,0,.21.21H77.93c.25,0,.34.09.34.34v3.7c0,.25-.09.34-.34.34H62.78c-.25,0-.34-.09-.34-.34Z" transform="translate(0)"/><path class="cls-1" d="M94.63,175.87a.5.5,0,0,1-.5-.34l-4.08-8.66H86.89a.2.2,0,0,0-.21.21v8.45c0,.26-.12.34-.34.34H81.93c-.26,0-.34-.13-.34-.34v-23a.3.3,0,0,1,.34-.34h9.42a8.32,8.32,0,0,1,5.81,2.06,6.7,6.7,0,0,1,2.23,5.31,6.84,6.84,0,0,1-4.21,6.56l4.67,9.3a.28.28,0,0,1-.25.42Zm-3.57-13.34a2.94,2.94,0,1,0,0-5.85H86.89a.21.21,0,0,0-.21.21v5.47a.2.2,0,0,0,.21.21h4.17Z" transform="translate(0)"/><path class="cls-1" d="M102.5,152.56a.3.3,0,0,1,.34-.34h4.42c.25,0,.34.09.34.34v23c0,.26-.09.34-.34.34h-4.42c-.25,0-.34-.08-.34-.34Z" transform="translate(0)"/><path class="cls-1" d="M111.64,152.56c0-.25.12-.34.33-.34h15.15c.25,0,.34.09.34.34v3.7a.3.3,0,0,1-.34.34H116.94a.19.19,0,0,0-.21.21v4.71a.19.19,0,0,0,.21.21h8.5c.25,0,.33.09.33.34v3.7c0,.25-.08.34-.33.34h-8.5a.19.19,0,0,0-.21.21v4.92a.19.19,0,0,0,.21.21h10.18c.25,0,.34.09.34.34v3.7a.3.3,0,0,1-.34.34H112c-.25,0-.33-.09-.33-.34V152.56Z" transform="translate(0)"/><path class="cls-1" d="M144.54,152.56a.42.42,0,0,1,.46-.34h4.38a.42.42,0,0,1,.46.34l8,23c.08.26,0,.34-.25.34h-4.51a.42.42,0,0,1-.46-.34l-1.35-4.12H143l-1.31,4.12a.41.41,0,0,1-.46.34h-4.55c-.25,0-.29-.08-.25-.34ZM144.42,167h5.47l-2.7-8.29h-.08Z" transform="translate(0)"/><polygon class="cls-1" points="99.98 139.77 77.42 103.49 42.54 103.49 99.98 139.77"/><polygon class="cls-1" points="157.46 103.49 122.53 103.49 99.98 139.77 157.46 103.49"/><polygon class="cls-1" points="99.98 44.66 99.98 44.66 77.42 103.49 77.42 103.49 99.98 103.49 99.98 103.49 99.98 103.49 99.98 103.49 122.53 103.49 122.53 103.49 99.98 44.66"/><polygon class="cls-2" points="99.98 103.49 99.98 103.49 99.98 103.49 77.42 103.49 99.98 139.77 99.98 139.77 99.98 139.77 122.53 103.49 122.53 103.49 99.98 103.49"/><polygon class="cls-3" points="115.89 6.75 84.07 6.75 42.54 103.49 77.42 103.49 99.98 44.66 109.74 70.17 97.45 70.17 89.25 91.67 118.03 91.67 122.53 103.49 157.46 103.49 115.89 6.75"/><rect class="cls-4" x="18.6" y="187.61" width="54.33" height="5.64"/><rect class="cls-5" x="72.84" y="187.61" width="54.33" height="5.64"/><rect class="cls-6" x="127.08" y="187.61" width="54.33" height="5.64"/><rect class="cls-7" width="200" height="200"/></svg>